<?xml version="1.0" encoding="UTF-8" standalone="no"?>
<!-- Generator: IcoMoon.io -->

<svg
   xmlns:dc="http://purl.org/dc/elements/1.1/"
   xmlns:cc="http://creativecommons.org/ns#"
   xmlns:rdf="http://www.w3.org/1999/02/22-rdf-syntax-ns#"
   xmlns:svg="http://www.w3.org/2000/svg"
   xmlns="http://www.w3.org/2000/svg"
   xmlns:sodipodi="http://sodipodi.sourceforge.net/DTD/sodipodi-0.dtd"
   xmlns:inkscape="http://www.inkscape.org/namespaces/inkscape"
   width="512"
   height="512"
   viewBox="0 0 512 512"
   data-tags="grid"
   style="margin-left: 8px; margin-top: 8px;"
   id="svg3171"
   version="1.1"
   inkscape:version="0.48.2 r9819"
   sodipodi:docname="grid.svg">
  <metadata
     id="metadata3243">
    <rdf:RDF>
      <cc:Work
         rdf:about="">
        <dc:format>image/svg+xml</dc:format>
        <dc:type
           rdf:resource="http://purl.org/dc/dcmitype/StillImage" />
        <dc:title></dc:title>
      </cc:Work>
    </rdf:RDF>
  </metadata>
  <defs
     id="defs3241" />
  <sodipodi:namedview
     pagecolor="#ffffff"
     bordercolor="#666666"
     borderopacity="1"
     objecttolerance="10"
     gridtolerance="10"
     guidetolerance="10"
     inkscape:pageopacity="0"
     inkscape:pageshadow="2"
     inkscape:window-width="1102"
     inkscape:window-height="800"
     id="namedview3239"
     showgrid="false"
     inkscape:zoom="1.3037281"
     inkscape:cx="296.81177"
     inkscape:cy="91.321772"
     inkscape:window-x="0"
     inkscape:window-y="0"
     inkscape:window-maximized="0"
     inkscape:current-layer="svg3171" />
  <g
     id="g3173">
    <line
       x1="32"
       x2="32"
       y1="0"
       y2="512"
       stroke="#B35047"
       id="line3175" />
    <line
       x1="64"
       x2="64"
       y1="0"
       y2="512"
       stroke="#B35047"
       id="line3177" />
    <line
       x1="96"
       x2="96"
       y1="0"
       y2="512"
       stroke="#B35047"
       id="line3179" />
    <line
       x1="128"
       x2="128"
       y1="0"
       y2="512"
       stroke="#B35047"
       id="line3181" />
    <line
       x1="160"
       x2="160"
       y1="0"
       y2="512"
       stroke="#B35047"
       id="line3183" />
    <line
       x1="192"
       x2="192"
       y1="0"
       y2="512"
       stroke="#B35047"
       id="line3185" />
    <line
       x1="224"
       x2="224"
       y1="0"
       y2="512"
       stroke="#B35047"
       id="line3187" />
    <line
       x1="256"
       x2="256"
       y1="0"
       y2="512"
       stroke="#B35047"
       id="line3189" />
    <line
       x1="288"
       x2="288"
       y1="0"
       y2="512"
       stroke="#B35047"
       id="line3191" />
    <line
       x1="320"
       x2="320"
       y1="0"
       y2="512"
       stroke="#B35047"
       id="line3193" />
    <line
       x1="352"
       x2="352"
       y1="0"
       y2="512"
       stroke="#B35047"
       id="line3195" />
    <line
       x1="384"
       x2="384"
       y1="0"
       y2="512"
       stroke="#B35047"
       id="line3197" />
    <line
       x1="416"
       x2="416"
       y1="0"
       y2="512"
       stroke="#B35047"
       id="line3199" />
    <line
       x1="448"
       x2="448"
       y1="0"
       y2="512"
       stroke="#B35047"
       id="line3201" />
    <line
       x1="480"
       x2="480"
       y1="0"
       y2="512"
       stroke="#B35047"
       id="line3203" />
    <line
       x1="0"
       x2="512"
       y1="32"
       y2="32"
       stroke="#B35047"
       id="line3205" />
    <line
       x1="0"
       x2="512"
       y1="64"
       y2="64"
       stroke="#B35047"
       id="line3207" />
    <line
       x1="0"
       x2="512"
       y1="96"
       y2="96"
       stroke="#B35047"
       id="line3209" />
    <line
       x1="0"
       x2="512"
       y1="128"
       y2="128"
       stroke="#B35047"
       id="line3211" />
    <line
       x1="0"
       x2="512"
       y1="160"
       y2="160"
       stroke="#B35047"
       id="line3213" />
    <line
       x1="0"
       x2="512"
       y1="192"
       y2="192"
       stroke="#B35047"
       id="line3215" />
    <line
       x1="0"
       x2="512"
       y1="224"
       y2="224"
       stroke="#B35047"
       id="line3217" />
    <line
       x1="0"
       x2="512"
       y1="256"
       y2="256"
       stroke="#B35047"
       id="line3219" />
    <line
       x1="0"
       x2="512"
       y1="288"
       y2="288"
       stroke="#B35047"
       id="line3221" />
    <line
       x1="0"
       x2="512"
       y1="320"
       y2="320"
       stroke="#B35047"
       id="line3223" />
    <line
       x1="0"
       x2="512"
       y1="352"
       y2="352"
       stroke="#B35047"
       id="line3225" />
    <line
       x1="0"
       x2="512"
       y1="384"
       y2="384"
       stroke="#B35047"
       id="line3227" />
    <line
       x1="0"
       x2="512"
       y1="416"
       y2="416"
       stroke="#B35047"
       id="line3229" />
    <line
       x1="0"
       x2="512"
       y1="448"
       y2="448"
       stroke="#B35047"
       id="line3231" />
    <line
       x1="0"
       x2="512"
       y1="480"
       y2="480"
       stroke="#B35047"
       id="line3233" />
    <rect
       x="0"
       y="0"
       width="512"
       height="512"
       fill="none"
       stroke="#B35047"
       id="rect3235" />
  </g>
  <path
     d="m 112,192 -96,0 c -8.848,0 -16,7.152 -16,16 l 0,96 c 0,8.848 7.152,16 16,16 l 96,0 c 8.848,0 16,-7.152 16,-16 l 0,-96 c 0,-8.848 -7.152,-16 -16,-16 z M 112,0 16,0 C 7.152,0 0,7.152 0,16 l 0,96 c 0,8.848 7.152,16 16,16 l 96,0 c 8.848,0 16,-6.27732 16,-15.12532 L 128,16 C 128,7.152 120.848,0 112,0 z m 0,384 -96,0 c -8.848,0 -16,7.152 -16,16 l 0,96 c 0,8.848 7.152,16 16,16 l 96,0 c 8.848,0 16,-7.152 16,-16 l 0,-96 c 0,-8.848 -7.152,-16 -16,-16 z m 192,-192 -96,0 c -8.848,0 -16,7.152 -16,16 l 0,96 c 0,8.848 7.152,16 16,16 l 96,0 c 8.848,0 16,-7.152 16,-16 l 0,-96 c 0,-8.848 -7.152,-16 -16,-16 z m 0,192 -96,0 c -8.848,0 -16,7.152 -16,16 l 0,96 c 0,8.848 7.152,16 16,16 l 96,0 c 8.848,0 16,-7.152 16,-16 l 0,-96 c 0,-8.848 -7.152,-16 -16,-16 z m 192,-192 -96,0 c -8.848,0 -16,7.152 -16,16 l 0,96 c 0,8.848 7.152,16 16,16 l 96,0 c 8.848,0 16,-7.152 16,-16 l 0,-96 c 0,-8.848 -7.152,-16 -16,-16 z M 496,0 400,0 c -8.848,0 -16,7.152 -16,16 l 0,96 c 0,8.848 7.152,16 16,16 l 96,0 c 8.848,0 16,-7.04435 16,-15.89235 L 512,16 C 512,7.152 504.848,0 496,0 z M 304,0 208,0 c -8.848,0 -16,7.152 -16,16 l 0,96 c 0,8.848 7.152,16 16,16 l 96,0 c 8.848,0 16,-5.51029 16,-14.35829 L 320,16 C 320,7.152 312.848,0 304,0 z m 192,384 -96,0 c -8.848,0 -16,7.152 -16,16 l 0,96 c 0,8.848 7.152,16 16,16 l 96,0 c 8.848,0 16,-7.152 16,-16 l 0,-96 c 0,-8.848 -7.152,-16 -16,-16 z"
     id="path3237"
     inkscape:connector-curvature="0"
     sodipodi:nodetypes="sssssssssssssssssssssssssssssssssssssssssssssssssssssssssssssssssssssssssssssssss" />
</svg>
